<p>[gdigrab @ 000002afd36ac380] Capturing whole desktop as 640x360x32 at (30,16)</p><p>
</p><p>Input #0, gdigrab, from 'desktop':
  Duration: N/A, start: 1520071024.451657, bitrate: 184330 kb/s
</p><p>    Stream #0:0: Video: bmp, bgra, 640x360, 184330 kb/s, 25 fps, 25 tbr, 1000k tbn, 1000k tbc
</p><p>Stream mapping:
  Stream #0:0 -> #0:0 (bmp (native) -> h264 (libx264))
Press [q] to stop, [?] for help
</p><p>[libx264 @ 000002afd4751600] using cpu capabilities: MMX2 SSE2Fast SSSE3 SSE4.2 AVX FMA3 BMI2 AVX2
</p><p>[libx264 @ 000002afd4751600] profile High, level 3.1
</p><p>[libx264 @ 000002afd4751600] 264 - core 155 r2893 b00bcaf - H.264/MPEG-4 AVC codec - Copyleft 2003-2017 - http://www.videolan.org/x264.html - options: cabac=1 ref=3 deblock=1:0:0 analyse=0x3:0x113 me=hex subme=7 psy=1 psy_rd=1.00:0.00 mixed_ref=1 me_range=16 chroma_me=1 trellis=1 8x8dct=1 cqm=0 deadzone=21,11 fast_pskip=1 chroma_qp_offset=-2 threads=12 lookahead_threads=2 sliced_threads=0 nr=0 decimate=1 interlaced=0 bluray_compat=0 constrained_intra=0 bframes=3 b_pyramid=2 b_adapt=1 b_bias=0 direct=1 weightb=1 open_gop=0 weightp=2 keyint=250 keyint_min=25 scenecut=40 intra_refresh=0 rc_lookahead=40 rc=abr mbtree=1 bitrate=1024 ratetol=1.0 qcomp=0.60 qpmin=0 qpmax=69 qpstep=4 ip_ratio=1.40 aq=1:1.00
</p><p>Output #0, mp4, to 'C:\Users\wwp\desktop\fup00.mp4':
  Metadata:
    encoder         : Lavf58.6.100
    Stream #0:0: Video: h264 (libx264) (avc1 / 0x31637661), yuv420p, 1280x720, q=-1--1, 1024 kb/s, 25 fps, </p><p>12800 tbn, 25 tbc
    Metadata:
      encoder         : Lavc58.9.100 libx264
    Side data:
      cpb: bitrate max/min/avg: 0/0/1024000 buffer size: 0 vbv_delay: -1
</p><p>frame=   19 fps=0.0 q=0.0 size=       0kB time=00:00:00.00 bitrate=N/A speed=   0x    </p><p>frame=   32 fps= 31 q=0.0 size=       0kB time=00:00:00.00 bitrate=N/A speed=   0x    </p><p>frame=   45 fps= 29 q=0.0 size=       0kB time=00:00:00.00 bitrate=N/A speed=   0x    </p><p>frame=   58 fps= 28 q=35.0 size=       0kB time=-00:00:00.03 bitrate=N/A speed=N/A    </p><p>frame=   70 fps= 27 q=34.0 size=       0kB time=00:00:00.44 bitrate=   0.9kbits/s speed=0.173x    </p><p>frame=   83 fps= 27 q=25.0 size=       0kB time=00:00:00.96 bitrate=   0.4kbits/s speed=0.314x    </p><p>frame=   96 fps= 27 q=24.0 size=       0kB time=00:00:01.48 bitrate=   0.3kbits/s speed=0.415x    </p><p>frame=  108 fps= 27 q=20.0 size=       0kB time=00:00:01.96 bitrate=   0.2kbits/s speed=0.482x    </p><p>frame=  121 fps= 26 q=24.0 size=       0kB time=00:00:02.48 bitrate=   0.2kbits/s speed=0.543x    </p><p>frame=  133 fps= 26 q=28.0 size=     512kB time=00:00:02.96 bitrate=1417.1kbits/s speed=0.584x    </p><p>frame=  146 fps= 26 q=28.0 size=     512kB time=00:00:03.48 bitrate=1205.3kbits/s speed=0.625x    </p><p>frame=  159 fps= 26 q=26.0 size=     512kB time=00:00:04.00 bitrate=1048.7kbits/s speed=0.658x    </p><p>frame=  171 fps= 26 q=24.0 size=     512kB time=00:00:04.48 bitrate= 936.3kbits/s speed=0.68x    </p><p>frame=  184 fps= 26 q=22.0 size=     512kB time=00:00:05.00 bitrate= 838.9kbits/s speed=0.704x    </p><p>frame=  197 fps= 26 q=21.0 size=     512kB time=00:00:05.52 bitrate= 759.9kbits/s speed=0.726x    </p><p>frame=  209 fps= 26 q=19.0 size=     512kB time=00:00:06.00 bitrate= 699.1kbits/s speed=0.739x    </p><p>frame=  220 fps= 25 q=-1.0 Lsize=     655kB time=00:00:08.68 bitrate= 617.8kbits/s speed=0.997x    
video:651kB audio:0kB subtitle:0kB other streams:0kB global headers:0kB muxing overhead: 0.517362%
</p><p>[libx264 @ 000002afd4751600] frame I:1     Avg QP:24.16  size: 55188
[libx264 @ 000002afd4751600] </p><p>frame P:58    Avg QP:15.23  size:  6885
[libx264 @ 000002afd4751600] frame B:161   Avg QP:17.32  size:  1314
[libx264 @ 000002afd4751600] consecutive B-frames:  1.4%  1.8%  4.1% 92.7%
[libx264 @ 000002afd4751600] mb I  I16..4: 19.2% 48.4% 32.4%
[libx264 @ 000002afd4751600] mb P  I16..4:  2.2%  1.3%  1.4%  P16..4:  5.6%  0.6%  0.6%  0.0%  0.0%    skip:88.3%
[libx264 @ 000002afd4751600] mb B  I16..4:  0.1%  0.2%  0.4%  B16..8:  4.4%  0.2%  0.1%  direct: 0.1%  skip:94.5%  L0:35.0% L1:64.4% BI: 0.5%
[libx264 @ 000002afd4751600] final ratefactor: 14.53
[libx264 @ 000002afd4751600] 8x8 transform intra:31.3% inter:38.4%
[libx264 @ 000002afd4751600] coded y,uvDC,uvAC intra: 29.6% 34.0% 32.5% inter: 0.8% 1.2% 1.0%
[libx264 @ 000002afd4751600] </p><p>i16 v,h,dc,p: 74% 24%  2%  0%
[libx264 @ 000002afd4751600] i8 v,h,dc,ddl,ddr,vr,hd,vl,hu: 39% 13% 43%  1%  1%  1%  1%  1%  1%
[libx264 @ 000002afd4751600] i4 v,h,dc,ddl,ddr,vr,hd,vl,hu: 33% 24% 20%  3%  4%  4%  4%  5%  4%
[libx264 @ 000002afd4751600] i8c dc,h,v,p: 70% 12% 17%  1%
[libx264 @ 000002afd4751600] Weighted P-Frames: Y:0.0% UV:0.0%
[libx264 @ 000002afd4751600] ref P L0: 81.0%  2.0% 12.9%  4.0%
[libx264 @ 000002afd4751600] </p><p>ref B L0: 60.0% 36.1%  3.9%
[libx264 @ 000002afd4751600] ref B L1: 96.1%  3.9%
[libx264 @ 000002afd4751600] kb/s:605.58
</p>